<svg width="18" height="15" viewBox="0 0 18 15" fill="none" xmlns="http://www.w3.org/2000/svg">
<path d="M5.47168 8.98667L4.7002 10.1907L3.54004 9.53938C4.16855 11.5931 6.18864 13.0968 8.58594 13.0968C11.4854 13.0968 13.8359 10.8979 13.8359 8.18548H15.3359C15.3359 11.6729 12.3139 14.5 8.58594 14.5C5.49039 14.5 2.88391 12.5501 2.08789 9.89201L1.17188 10.9627L0 10.0857L2.41016 7.26827L5.47168 8.98667Z" fill="black"/>
<path d="M8.58594 0C11.6815 0 14.288 1.94994 15.084 4.60799L16 3.5373L17.1719 4.41431L14.7617 7.23173L11.7002 5.51333L12.4717 4.30926L13.6318 4.96062C13.0033 2.90688 10.9832 1.40323 8.58594 1.40323C5.68644 1.40323 3.33594 3.60209 3.33594 6.31452H1.83594C1.83594 2.82711 4.85802 0 8.58594 0Z" fill="black"/>
</svg>
