<svg width="10" height="6" viewBox="0 0 10 6" fill="none" xmlns="http://www.w3.org/2000/svg">
<path d="M8.54076 0C9.35249 -3.45373e-08 9.79592 0.921589 9.27626 1.52861L5.7355 5.66466C5.35273 6.11178 4.64727 6.11178 4.2645 5.66466L0.723736 1.52861C0.204082 0.921589 0.647512 3.35864e-07 1.45924 3.01325e-07L8.54076 0Z" fill="black"/>
<path d="M8.54076 0C9.35249 -3.45373e-08 9.79592 0.921589 9.27626 1.52861L5.7355 5.66466C5.35273 6.11178 4.64727 6.11178 4.2645 5.66466L0.723736 1.52861C0.204082 0.921589 0.647512 3.35864e-07 1.45924 3.01325e-07L8.54076 0Z" fill="black"/>
</svg>
