<svg width="33" height="32" viewBox="0 0 33 32" fill="none" xmlns="http://www.w3.org/2000/svg">
<path d="M16.875 32C25.7116 32 32.875 24.8366 32.875 16C32.875 7.16344 25.7116 0 16.875 0C8.03844 0 0.875 7.16344 0.875 16C0.875 24.8366 8.03844 32 16.875 32Z" fill="#2775C9"/>
<path d="M16.625 27.5C10.135 27.5 4.875 22.24 4.875 15.75C4.875 9.26 10.135 4 16.625 4C23.115 4 28.375 9.26 28.375 15.75C28.375 18.8663 27.1371 21.855 24.9335 24.0585C22.73 26.2621 19.7413 27.5 16.625 27.5ZM15.925 11.39C15.2821 11.4219 14.6744 11.6929 14.2211 12.1499C13.7678 12.6069 13.5017 13.2169 13.475 13.86C13.475 15.07 14.215 15.86 15.785 16.19L16.885 16.45C17.955 16.7 18.395 17.06 18.395 17.67C18.395 18.28 17.625 18.88 16.625 18.88C16.2698 18.9126 15.9126 18.8445 15.5943 18.6836C15.276 18.5226 15.0094 18.2753 14.825 17.97C14.7704 17.8541 14.6841 17.7561 14.5762 17.6871C14.4683 17.6181 14.3431 17.581 14.215 17.58H13.625C13.5796 17.5884 13.5364 17.6057 13.4977 17.6309C13.459 17.6561 13.4257 17.6887 13.3997 17.7268C13.3737 17.7649 13.3555 17.8077 13.3461 17.8529C13.3367 17.8981 13.3363 17.9447 13.345 17.99C13.4887 18.5766 13.8229 19.0989 14.2951 19.4753C14.7674 19.8517 15.3512 20.0608 15.955 20.07V20.91C15.955 21.097 16.0293 21.2763 16.1615 21.4085C16.2937 21.5407 16.473 21.615 16.66 21.615C16.847 21.615 17.0263 21.5407 17.1585 21.4085C17.2907 21.2763 17.365 21.097 17.365 20.91V20.06C18.0478 20.0523 18.7006 19.7783 19.1843 19.2964C19.6681 18.8145 19.9446 18.1627 19.955 17.48C19.955 16.21 19.225 15.48 17.495 15.11L16.495 14.89C15.495 14.64 15.025 14.31 15.025 13.75C15.025 13.19 15.625 12.57 16.625 12.57C16.9399 12.5371 17.2577 12.5961 17.5398 12.7398C17.822 12.8836 18.0565 13.1059 18.215 13.38C18.2793 13.5169 18.381 13.6328 18.5084 13.7142C18.6359 13.7956 18.7838 13.8392 18.935 13.84H19.405C19.5119 13.8139 19.6042 13.7468 19.6622 13.6533C19.7201 13.5598 19.7391 13.4473 19.715 13.34C19.5795 12.7984 19.2765 12.3135 18.8491 11.9543C18.4217 11.5952 17.8918 11.3802 17.335 11.34V10.65C17.335 10.463 17.2607 10.2837 17.1285 10.1515C16.9963 10.0193 16.817 9.945 16.63 9.945C16.443 9.945 16.2637 10.0193 16.1315 10.1515C15.9993 10.2837 15.925 10.463 15.925 10.65V11.39ZM7.815 15.75C7.81615 17.5921 8.39597 19.3872 9.47259 20.8819C10.5492 22.3766 12.0682 23.4953 13.815 24.08H13.955C14.0743 24.08 14.1888 24.0326 14.2732 23.9482C14.3576 23.8638 14.405 23.7493 14.405 23.63V23.42C14.4053 23.2339 14.3504 23.0518 14.2471 22.8969C14.1439 22.742 13.997 22.6213 13.825 22.55C12.4646 22.0009 11.2993 21.0578 10.4788 19.8417C9.65823 18.6256 9.21981 17.192 9.21981 15.725C9.21981 14.258 9.65823 12.8244 10.4788 11.6083C11.2993 10.3922 12.4646 9.4491 13.825 8.9C13.9962 8.83047 14.1427 8.71154 14.246 8.55837C14.3493 8.40521 14.4047 8.22474 14.405 8.04V7.81C14.4056 7.74247 14.39 7.67578 14.3594 7.61558C14.3288 7.55538 14.2841 7.50346 14.2291 7.4642C14.1742 7.42495 14.1106 7.39953 14.0437 7.39009C13.9768 7.38066 13.9087 7.38749 13.845 7.41C12.091 7.99009 10.5643 9.10811 9.48183 10.6052C8.39937 12.1024 7.81615 13.9025 7.815 15.75ZM25.435 15.75C25.4318 13.9096 24.851 12.1167 23.7745 10.624C22.698 9.13132 21.1802 8.01414 19.435 7.43H19.285C19.1603 7.43 19.0408 7.47952 18.9527 7.56766C18.8645 7.6558 18.815 7.77535 18.815 7.9V8.05C18.819 8.24287 18.8788 8.43046 18.987 8.59014C19.0952 8.74983 19.2473 8.87481 19.425 8.95C20.7823 9.50071 21.9444 10.4439 22.7626 11.6588C23.5808 12.8738 24.0178 14.3052 24.0178 15.77C24.0178 17.2348 23.5808 18.6662 22.7626 19.8812C21.9444 21.0961 20.7823 22.0393 19.425 22.59C19.2507 22.666 19.1017 22.79 18.9955 22.9477C18.8892 23.1053 18.8301 23.29 18.825 23.48V23.65C18.8259 23.7241 18.8442 23.797 18.8786 23.8627C18.913 23.9284 18.9625 23.985 19.023 24.0279C19.0834 24.0708 19.1532 24.0988 19.2265 24.1096C19.2999 24.1204 19.3747 24.1137 19.445 24.09C21.1916 23.5031 22.7095 22.3821 23.7844 20.8856C24.8593 19.389 25.4367 17.5925 25.435 15.75Z" fill="white"/>
</svg>
